<?xml version="1.0" encoding="utf-8"?>
<!-- Generator: Adobe Illustrator 16.0.0, SVG Export Plug-In . SVG Version: 6.00 Build 0)  -->
<!DOCTYPE svg PUBLIC "-//W3C//DTD SVG 1.1//EN" "http://www.w3.org/Graphics/SVG/1.1/DTD/svg11.dtd" [
	<!ENTITY ns_flows "http://ns.adobe.com/Flows/1.0/">
	<!ENTITY ns_extend "http://ns.adobe.com/Extensibility/1.0/">
	<!ENTITY ns_ai "http://ns.adobe.com/AdobeIllustrator/10.0/">
	<!ENTITY ns_graphs "http://ns.adobe.com/Graphs/1.0/">
]>
<svg version="1.1" id="Layer_1" xmlns:x="&ns_extend;" xmlns:i="&ns_ai;" xmlns:graph="&ns_graphs;"
	 xmlns="http://www.w3.org/2000/svg" xmlns:xlink="http://www.w3.org/1999/xlink" xmlns:a="http://ns.adobe.com/AdobeSVGViewerExtensions/3.0/"
	 x="0px" y="0px" width="500px" height="500px" viewBox="0 0 500 500" enable-background="new 0 0 500 500" xml:space="preserve">
<path fill="#6FA500" d="M18.487,6.751c-5.247,0-9.5,4.115-9.5,9.193V34.16c0,0.883,0.74,1.599,1.652,1.599h15.693
	c0.912,0,1.652-0.716,1.652-1.599l0.003-18.215C27.987,10.866,23.734,6.751,18.487,6.751z M19.623,26.601v2.878
	c0,0.607-0.509,1.099-1.136,1.099c-0.627,0-1.136-0.492-1.136-1.099v-2.878c-0.478-0.34-0.792-0.883-0.792-1.5
	c0-1.029,0.863-1.865,1.927-1.865s1.928,0.835,1.928,1.865C20.415,25.718,20.101,26.261,19.623,26.601z M25.487,17.351h-14v-1.406
	c0-3.735,3.141-6.775,7-6.775c3.86,0,7,3.04,7,6.775V17.351L25.487,17.351z"/>
<g>
	<path fill="#6FA500" d="M61.666,25.028c0,0.442-0.346,0.829-0.787,0.884l-14.43,1.687c0.068,0.317,0.179,0.636,0.179,0.967
		c0,0.318-0.193,0.609-0.331,0.885h12.716c0.483,0,0.885,0.401,0.885,0.885c0,0.483-0.401,0.884-0.885,0.884H44.859
		c-0.484,0-0.885-0.401-0.885-0.884c0-0.428,0.621-1.465,0.843-1.893l-2.446-11.376h-2.82c-0.483,0-0.885-0.401-0.885-0.884
		c0-0.484,0.401-0.885,0.885-0.885h3.539c0.926,0,0.954,1.106,1.092,1.769h16.6c0.484,0,0.885,0.401,0.885,0.885V25.028z
		 M45.744,34.758c-0.968,0-1.77-0.802-1.77-1.769s0.802-1.77,1.77-1.77c0.967,0,1.769,0.802,1.769,1.77S46.711,34.758,45.744,34.758
		z M58.128,34.758c-0.968,0-1.769-0.802-1.769-1.769s0.801-1.77,1.769-1.77s1.77,0.802,1.77,1.77S59.096,34.758,58.128,34.758z"/>
</g>
<g>
	<path fill="#6FA500" d="M95.375,32.751c0,1.108-0.854,2.007-1.906,2.007H74.281c-1.053,0-1.906-0.898-1.906-2.007l0,0
		c0-1.108,0.854-2.007,1.906-2.007h19.188C94.521,30.745,95.375,31.644,95.375,32.751L95.375,32.751z"/>
	<path fill="#6FA500" d="M95.375,23.757c0,1.108-0.854,2.007-1.906,2.007H74.281c-1.053,0-1.906-0.899-1.906-2.007l0,0
		c0-1.108,0.854-2.007,1.906-2.007h19.188C94.521,21.75,95.375,22.649,95.375,23.757L95.375,23.757z"/>
</g>
<g>
	<g>
		<path fill="#B7B7B7" d="M105.806,32.074c0.152-0.314,0.325-0.619,0.455-0.942c0.632-1.562,1.251-3.126,1.875-4.69
			c0.023-0.062,0.042-0.129,0.067-0.211c-0.448-0.238-0.896-0.465-1.064-1.072c0.464-0.132,0.924-0.251,1.375-0.401
			c0.14-0.046,0.326-0.154,0.367-0.276c0.486-1.445,0.951-2.9,1.42-4.353c0.016-0.049,0.002-0.109,0.002-0.165
			c-0.289-0.055-0.572-0.078-0.839-0.161c-0.766-0.24-1.11-0.929-0.837-1.678c0.041-0.11,0.236-0.244,0.351-0.234
			c2.486,0.19,4.952-0.084,7.418-0.321c0.057-0.005,0.113-0.015,0.169-0.021c1.333-0.125,1.941,0.376,2.113,1.738
			c-0.351,0-0.7-0.016-1.049,0.003c-1.284,0.07-2.569,0.145-3.852,0.239c-0.14,0.01-0.335,0.129-0.395,0.25
			c-0.704,1.447-1.388,2.904-2.105,4.424c0.806-0.08,1.519-0.15,2.23-0.218c0.099-0.011,0.197-0.019,0.296-0.02
			c1.251-0.02,1.801,0.702,1.482,1.895c-0.515,0-1.021-0.04-1.521,0.01c-1.056,0.099-2.109,0.231-3.158,0.388
			c-0.141,0.022-0.301,0.233-0.367,0.391c-0.941,2.25-1.727,4.549-2.172,6.955c-0.02,0.11-0.056,0.217-0.089,0.348
			c-1.037-0.187-1.629-0.914-2.174-1.702C105.806,32.187,105.806,32.13,105.806,32.074z"/>
		<path fill="#B7B7B7" d="M147.301,23.416c-1.562,2.227-2.753,4.586-3.325,7.229c-0.062,0.286-0.033,0.592-0.046,0.887
			c0.05,0.024,0.1,0.05,0.148,0.074c0.275-0.185,0.61-0.318,0.812-0.562c0.686-0.823,1.405-1.637,1.964-2.545
			c0.957-1.555,1.809-3.172,2.688-4.771c0.156-0.283,0.346-0.395,0.643-0.305c0.431,0.133,0.865,0.262,1.279,0.434
			c0.09,0.038,0.185,0.299,0.14,0.388c-1.301,2.574-2.068,5.354-3.093,8.034c-0.818,2.139-1.962,4.085-3.643,5.671
			c-1.13,1.067-2.412,1.799-4.043,1.606c-0.918-0.106-1.767-0.398-2.44-1.069c-0.254-0.254-0.254-0.481,0.091-0.703
			c1.018,1.062,2.143,0.697,3.247,0.197c1.028-0.469,1.808-1.26,2.486-2.145c1.489-1.941,2.373-4.169,3.021-6.503
			c0.007-0.023-0.011-0.053-0.022-0.102c-0.445,0.615-0.853,1.243-1.328,1.814c-0.414,0.497-0.896,0.941-1.366,1.389
			c-0.325,0.309-0.728,0.385-1.143,0.203c-0.346-0.152-0.699-0.312-1.006-0.529c-0.496-0.355-0.687-0.859-0.629-1.484
			c0.133-1.463,0.606-2.828,1.248-4.121c0.513-1.033,1.159-2.002,1.778-2.978C145.494,22.375,146.522,22.847,147.301,23.416z"/>
		<path fill="#B7B7B7" d="M193.783,38.15c-0.143-0.242-0.288-0.481-0.428-0.727c-0.138-0.24-0.223-0.534-0.417-0.712
			c-0.206-0.188-0.261-0.339-0.218-0.61c0.604-3.71,1.635-7.316,2.636-10.93c0.043-0.16,0.084-0.322,0.148-0.564
			c-0.521,0.023-0.997,0.018-1.465,0.076c-0.343,0.043-0.475-0.072-0.478-0.475c0.586-0.12,1.186-0.271,1.794-0.352
			c0.313-0.043,0.416-0.187,0.506-0.456c0.585-1.729,1.329-3.375,2.591-4.73c0.938-1.01,2.036-1.662,3.494-1.458
			c0.161,0.022,0.348-0.086,0.513-0.154c0.435-0.178,0.859-0.301,1.279,0.088c-0.336,0.907-0.671,1.818-1.018,2.727
			c-0.061,0.156-0.143,0.313-0.251,0.441c-0.139,0.16-0.314,0.29-0.475,0.434c-0.059-0.194-0.143-0.385-0.172-0.584
			c-0.11-0.747-0.202-1.498-0.312-2.333c-0.211,0.163-0.521,0.303-0.677,0.543c-0.532,0.813-1.062,1.638-1.494,2.506
			c-0.428,0.856-0.732,1.772-1.108,2.707c0.471,0,0.876,0.039,1.268-0.013c0.407-0.05,0.579,0.097,0.614,0.478
			c0.02,0.21,0.05,0.418,0.086,0.705c-0.541-0.028-1.041-0.06-1.54-0.079c-0.672-0.027-0.685-0.029-0.885,0.625
			c-1.18,3.84-2.354,7.683-3.525,11.521c-0.127,0.418-0.204,0.85-0.305,1.274C193.893,38.115,193.838,38.132,193.783,38.15z"/>
		<path fill="#B7B7B7" d="M165.979,23.435c-1.259,1.829-2.277,3.78-2.951,5.9c-0.146,0.458-0.262,0.927-0.352,1.399
			c-0.047,0.25-0.008,0.516-0.008,0.903c0.253-0.194,0.432-0.285,0.547-0.425c1.437-1.751,2.92-3.464,3.759-5.624
			c0.268-0.688,0.732-1.298,1.115-1.94c0.049-0.082,0.118-0.166,0.2-0.216c0.281-0.164,1.78,0.267,1.892,0.56
			c0.04,0.105-0.022,0.272-0.079,0.392c-0.542,1.153-1.109,2.294-1.636,3.455c-0.471,1.038-0.853,2.114-0.718,3.278
			c0.061,0.51,0.25,1.006,0.397,1.565c-0.789-0.094-1.498-0.373-2.064-0.891c-0.618-0.564-0.598-1.359-0.604-2.173
			c-0.297,0.369-0.593,0.739-0.893,1.105c-0.454,0.561-0.899,1.128-1.369,1.676c-0.286,0.332-0.679,0.441-1.077,0.248
			c-0.44-0.211-0.915-0.418-1.25-0.752c-0.25-0.248-0.447-0.709-0.418-1.052c0.244-2.834,1.346-5.331,3.152-7.512
			C164.213,22.629,165.309,22.705,165.979,23.435z"/>
		<path fill="#B7B7B7" d="M191.804,16.881c-3.901,4.988-6.05,10.625-6.75,16.9c-0.104-0.041-0.322-0.069-0.447-0.193
			c-0.615-0.609-1.141-1.244-1.131-2.214c0.014-1.312,0.315-2.555,0.7-3.784c1.104-3.53,2.392-6.986,4.223-10.215
			c0.299-0.527,0.664-1.02,1.013-1.518c0.061-0.085,0.219-0.188,0.293-0.163C190.489,15.949,191.206,16.326,191.804,16.881z"/>
		<path fill="#B7B7B7" d="M134.042,33.828c-0.188-0.131-0.397-0.271-0.602-0.418c-0.043-0.031-0.058-0.103-0.1-0.135
			c-1.069-0.857-0.942-2.037-0.762-3.164c0.412-2.56,1.363-4.959,2.303-7.359c0.778-1.991,1.624-3.954,2.754-5.778
			c0.231-0.372,0.502-0.72,0.739-1.088c0.132-0.2,0.276-0.266,0.495-0.149c0.656,0.348,1.313,0.692,2,1.055
			C136.912,21.847,134.761,27.486,134.042,33.828z"/>
		<path fill="#B7B7B7" d="M159.798,26.177c-0.058,3.006-1.989,5.713-4.795,6.652c-1.08,0.359-2.05,0.04-2.697-0.908
			c-0.63-0.923-0.722-1.967-0.526-3.02c0.417-2.256,1.548-4.093,3.441-5.408c0.417-0.291,0.943-0.425,1.427-0.619
			c0.299-0.121,0.553-0.02,0.767,0.203c0.157,0.164,0.332,0.315,0.457,0.501c0.26,0.388,0.483,0.736,1.064,0.717
			c0.206-0.007,0.52,0.347,0.618,0.602C159.708,25.295,159.724,25.748,159.798,26.177z M158.13,24.684
			c-0.06-0.018-0.116-0.036-0.175-0.052c-0.328,0.161-0.677,0.289-0.979,0.487c-1.826,1.192-2.792,2.955-3.286,5.022
			c-0.142,0.601-0.083,1.181,0.169,1.745c0.12,0.268,0.306,0.38,0.573,0.246c0.525-0.268,1.104-0.481,1.552-0.85
			c1.612-1.324,2.227-3.127,2.278-5.151C158.275,25.65,158.177,25.166,158.13,24.684z"/>
		<path fill="#B7B7B7" d="M130.771,29.771c0.282,0.166,0.423,0.301,0.188,0.584c-0.776,0.934-1.644,1.76-2.723,2.338
			c-1.176,0.629-2.393,0.404-3.292-0.591c-0.666-0.737-0.859-1.625-0.734-2.571c0.328-2.502,1.519-4.504,3.587-5.965
			c0.263-0.185,0.562-0.33,0.86-0.451c1.121-0.459,2-0.234,2.759,0.705c0.096,0.118,0.154,0.307,0.145,0.456
			c-0.132,1.857-0.928,3.348-2.541,4.32c-0.784,0.473-1.626,0.853-2.457,1.244c-0.233,0.109-0.367,0.211-0.357,0.485
			c0.021,0.606-0.067,1.296,0.532,1.653c0.563,0.335,1.196,0.093,1.683-0.241c0.74-0.512,1.411-1.123,2.108-1.697
			C130.614,29.968,130.68,29.873,130.771,29.771z M130.132,24.738c-1.343,0.048-3.265,2.242-3.684,4.383
			C128.239,28.592,130.23,26.222,130.132,24.738z"/>
		<path fill="#B7B7B7" d="M122.743,29.809c0.072,0.077,0.166,0.177,0.283,0.304c-1.017,1.287-2.154,2.39-3.73,2.922
			c-0.227,0.074-0.51,0.062-0.747,0.007c-1.813-0.414-2.716-1.73-2.42-3.728c0.36-2.457,1.589-4.423,3.666-5.82
			c0.312-0.208,0.677-0.353,1.034-0.478c0.521-0.184,1.05-0.208,1.567,0.057c0.933,0.478,1.135,0.9,0.957,1.927
			c-0.278,1.611-1.137,2.828-2.525,3.649c-0.776,0.458-1.608,0.826-2.427,1.21c-0.226,0.107-0.346,0.227-0.312,0.476
			c0.056,0.403,0.07,0.819,0.179,1.208c0.108,0.391,0.424,0.648,0.841,0.543c0.54-0.139,1.118-0.271,1.569-0.572
			C121.399,31.027,122.031,30.406,122.743,29.809z M118.348,29.139c1.985-0.807,3.874-3.087,3.662-4.422
			C120.174,24.955,118.496,27.761,118.348,29.139z"/>
		<path fill="#B7B7B7" d="M206.105,29.766c0.086,0.099,0.178,0.201,0.297,0.334c-1.039,1.293-2.157,2.479-3.775,2.928
			c-0.953,0.264-1.794-0.255-2.449-0.957c-0.8-0.856-0.861-1.918-0.661-2.994c0.399-2.159,1.463-3.947,3.21-5.28
			c0.482-0.368,1.077-0.62,1.656-0.824c1.054-0.369,1.839,0.303,2.354,0.938c0.073,0.093,0.072,0.267,0.064,0.398
			c-0.122,1.76-0.85,3.204-2.352,4.161c-0.832,0.527-1.74,0.939-2.632,1.363c-0.281,0.133-0.396,0.284-0.373,0.573
			c0.018,0.211,0.018,0.423,0.049,0.632c0.158,0.979,0.593,1.25,1.555,0.963c1.086-0.325,1.866-1.094,2.64-1.865
			c0.089-0.091,0.174-0.188,0.265-0.275C205.98,29.832,206.021,29.816,206.105,29.766z M205.403,24.705
			c-1.595,0.303-3.654,2.791-3.68,4.421C203.437,28.386,205.425,26.494,205.403,24.705z"/>
		<path fill="#B7B7B7" d="M177.589,28.011c-0.811-0.417-1.285-1.03-1.612-1.806c-2.619,1.51-3.66,3.975-4.161,6.82
			c-0.68-0.158-1.2-0.484-1.604-0.994c-0.055-0.069-0.048-0.217-0.024-0.316c0.636-2.811,1.491-5.553,2.7-8.168
			c0.494-1.07,0.471-0.973,1.543-0.559c0.361,0.141,0.688,0.377,1.09,0.604c-0.866,1.045-1.362,2.202-1.675,3.476
			c0.353-0.328,0.731-0.632,1.053-0.99c0.718-0.8,1.414-1.62,2.101-2.447c0.298-0.357,1.094-0.434,1.388-0.078
			c0.055,0.066,0.059,0.213,0.029,0.305c-0.298,0.979-0.454,1.958-0.075,2.957c0.031,0.084-0.01,0.229-0.066,0.309
			C178.061,27.419,177.828,27.703,177.589,28.011z"/>
		<path fill="#B7B7B7" d="M189.815,32.675c-0.929-0.125-1.659-0.957-1.546-1.83c0.219-1.684,0.458-3.375,1.111-4.953
			c0.253-0.611,0.706-1.145,1.103-1.689c0.184-0.252,0.484-0.307,0.759-0.118c0.44,0.301,0.871,0.615,1.295,0.94
			c0.168,0.128,0.154,0.267,0.032,0.468c-0.493,0.821-1.028,1.632-1.396,2.509c-0.492,1.168-0.861,2.392-1.246,3.604
			C189.822,31.931,189.85,32.297,189.815,32.675z"/>
		<path fill="#B7B7B7" d="M194.939,19.983c-0.771,0.94-1.523,1.859-2.302,2.811c-0.316-0.111-0.609-0.27-0.511-0.736
			c0.011-0.053,0.017-0.116-0.005-0.164c-0.495-1.108,0.112-2.094,0.371-3.111c0.02-0.069,0.256-0.141,0.375-0.118
			C193.514,18.785,194.511,19.437,194.939,19.983z"/>
	</g>
</g>
<g>
	<path fill="#29257F" d="M30.435,65.578c-1.014,1.515-2.388,2.652-4.118,3.408c-1.732,0.759-3.68,1.137-5.844,1.137h-4.748v8.523
		H9.476V50.239h11.606c2.218,0,4.146,0.413,5.783,1.238c1.636,0.825,2.894,1.982,3.774,3.47c0.878,1.488,1.319,3.192,1.319,5.113
		v0.081C31.957,62.25,31.45,64.063,30.435,65.578 M24.287,56.995c-0.893-0.744-2.137-1.114-3.733-1.114h-4.829v8.683h4.951
		c1.515,0,2.719-0.405,3.611-1.217c0.893-0.812,1.339-1.84,1.339-3.084v-0.081C25.626,58.802,25.18,57.74,24.287,56.995"/>
	<path fill="#29257F" d="M55.331,72.274H43.319l-2.597,6.372h-6.371l12.174-28.61h5.762l12.175,28.61h-6.533L55.331,72.274z
		 M45.551,66.755H53.1l-3.774-9.21L45.551,66.755z"/>
	<path fill="#29257F" d="M83.047,69.555h-4.91v9.092h-6.249V50.239h12.985c3.354,0,5.979,0.832,7.873,2.496
		c1.893,1.664,2.84,3.957,2.84,6.879v0.081c0,2.218-0.541,4.065-1.623,5.54c-1.082,1.474-2.57,2.561-4.463,3.265l6.938,10.146
		h-7.304L83.047,69.555z M87.957,56.914c-0.865-0.69-2.069-1.034-3.611-1.034h-6.209v8.156h6.331c1.487,0,2.657-0.366,3.51-1.096
		c0.853-0.73,1.278-1.704,1.278-2.921v-0.081C89.256,58.612,88.822,57.604,87.957,56.914"/>
	<path fill="#29257F" d="M122.815,72.274h-12.011l-2.598,6.372h-6.371l12.174-28.61h5.762l12.176,28.61h-6.533L122.815,72.274z
		 M113.036,66.755h7.548l-3.773-9.21L113.036,66.755z"/>
	<polygon fill="#29257F" points="138.52,73.897 154.144,55.718 139.008,55.718 139.008,50.239 162.179,50.239 162.179,54.988 
		146.555,73.167 162.179,73.167 162.179,78.646 138.52,78.646 	"/>
	<path fill="#29257F" d="M189.691,72.274H177.68l-2.598,6.372h-6.371l12.175-28.61h5.762l12.175,28.61h-6.533L189.691,72.274z
		 M179.912,66.755h7.549l-3.775-9.21L179.912,66.755z"/>
	<polygon fill="#29257F" points="216.801,68.905 210.389,78.646 203.286,78.646 213.188,64.199 203.691,50.239 210.996,50.239 
		216.963,59.451 222.968,50.239 230.07,50.239 220.574,64.118 230.476,78.646 223.171,78.646 	"/>
	<path fill="#333333" d="M21.754,101.885c-1.044,0.495-2.32,0.742-3.826,0.742c-1.585,0-3.021-0.377-4.309-1.129
		c-1.288-0.755-2.3-1.778-3.037-3.073c-0.738-1.296-1.107-2.72-1.107-4.273v-0.048c0-1.554,0.365-2.982,1.095-4.285
		c0.729-1.302,1.75-2.334,3.061-3.096s2.791-1.141,4.438-1.141c1.46,0,2.699,0.215,3.72,0.646s1.946,1.062,2.778,1.896l-2.308,2.658
		c-0.675-0.611-1.35-1.074-2.024-1.387c-0.675-0.314-1.404-0.472-2.19-0.472c-0.91,0-1.73,0.231-2.46,0.694
		c-0.73,0.464-1.299,1.083-1.707,1.859c-0.409,0.776-0.612,1.637-0.612,2.578v0.047c0,0.943,0.204,1.811,0.612,2.603
		c0.408,0.792,0.973,1.421,1.695,1.884c0.721,0.463,1.545,0.693,2.471,0.693c0.879,0,1.64-0.156,2.284-0.47
		c0.644-0.313,1.327-0.801,2.049-1.46l2.308,2.331C23.775,100.656,22.798,101.391,21.754,101.885"/>
	<path fill="#333333" d="M40.295,99.354c-0.597,1.006-1.416,1.803-2.46,2.391c-1.044,0.59-2.209,0.883-3.496,0.883
		c-1.271,0-2.429-0.291-3.473-0.871c-1.044-0.58-1.86-1.37-2.449-2.365c-0.589-0.998-0.883-2.092-0.883-3.285v-0.047
		c0-1.193,0.298-2.291,0.895-3.297c0.596-1.004,1.417-1.801,2.461-2.389c1.043-0.589,2.208-0.884,3.496-0.884
		c1.271,0,2.428,0.29,3.473,0.872c1.043,0.58,1.86,1.369,2.449,2.365c0.588,0.997,0.883,2.094,0.883,3.284v0.048
		C41.19,97.251,40.892,98.35,40.295,99.354 M37.234,94.327c-0.282-0.524-0.675-0.949-1.177-1.271
		c-0.502-0.32-1.075-0.481-1.719-0.481c-0.989,0-1.782,0.33-2.377,0.988c-0.598,0.659-0.896,1.476-0.896,2.448v0.048
		c0,0.627,0.142,1.205,0.424,1.73c0.283,0.525,0.675,0.949,1.177,1.271s1.075,0.481,1.719,0.481c0.988,0,1.781-0.329,2.377-0.987
		c0.597-0.66,0.895-1.477,0.895-2.449v-0.047C37.658,95.43,37.517,94.854,37.234,94.327"/>
	<path fill="#333333" d="M60.638,95.305c0-0.848-0.181-1.486-0.542-1.919c-0.361-0.432-0.879-0.646-1.554-0.646
		s-1.205,0.219-1.589,0.659c-0.385,0.439-0.577,1.074-0.577,1.906v7.04h-3.579v-7.04c0-0.848-0.18-1.486-0.542-1.919
		c-0.361-0.432-0.879-0.646-1.553-0.646c-0.676,0-1.206,0.219-1.589,0.659c-0.385,0.439-0.577,1.074-0.577,1.906v7.04h-3.579V89.726
		h3.579v1.788c0.487-0.627,1.02-1.123,1.601-1.482c0.58-0.361,1.287-0.542,2.119-0.542c0.816,0,1.53,0.173,2.143,0.518
		c0.612,0.347,1.083,0.841,1.413,1.483c1.146-1.334,2.527-2.001,4.143-2.001c1.351,0,2.398,0.396,3.144,1.188
		s1.119,1.942,1.119,3.449v8.218h-3.579V95.305z"/>
	<path fill="#333333" d="M80.969,99.566c-0.526,0.988-1.229,1.739-2.107,2.248c-0.88,0.512-1.83,0.766-2.849,0.766
		c-0.879,0-1.632-0.169-2.261-0.506c-0.627-0.338-1.185-0.797-1.671-1.377v5.416h-3.58V89.726h3.58v1.812
		c1.004-1.366,2.315-2.049,3.932-2.049c1.004,0,1.946,0.255,2.825,0.765c0.878,0.511,1.585,1.26,2.119,2.25
		c0.534,0.987,0.8,2.158,0.8,3.507v0.048C81.757,97.408,81.494,98.576,80.969,99.566 M77.767,94.199
		c-0.275-0.535-0.648-0.945-1.119-1.236c-0.471-0.291-0.989-0.436-1.554-0.436s-1.079,0.145-1.542,0.436
		c-0.463,0.291-0.833,0.701-1.107,1.236c-0.275,0.533-0.412,1.137-0.412,1.812v0.048c0,0.675,0.137,1.279,0.412,1.812
		c0.274,0.533,0.644,0.946,1.107,1.236c0.463,0.291,0.977,0.435,1.542,0.435s1.083-0.144,1.554-0.435
		c0.47-0.29,0.843-0.699,1.119-1.225c0.274-0.525,0.412-1.134,0.412-1.824v-0.048C78.178,95.336,78.041,94.732,77.767,94.199"/>
	<rect x="85.735" y="85.156" fill="#333333" width="3.579" height="17.189"/>
	<path fill="#333333" d="M105.584,97.283h-8.783c0.173,0.8,0.525,1.412,1.061,1.836c0.533,0.423,1.209,0.636,2.023,0.636
		c0.598,0,1.131-0.102,1.602-0.306c0.471-0.205,0.957-0.534,1.461-0.988l2.047,1.812c-1.271,1.569-2.988,2.354-5.156,2.354
		c-1.254,0-2.383-0.274-3.377-0.823c-0.999-0.55-1.783-1.319-2.354-2.308c-0.574-0.99-0.861-2.119-0.861-3.391v-0.047
		c0-1.193,0.268-2.291,0.801-3.297c0.533-1.004,1.274-1.801,2.224-2.389c0.95-0.589,2.021-0.884,3.214-0.884
		c1.35,0,2.486,0.315,3.402,0.942c0.92,0.628,1.604,1.459,2.062,2.495c0.454,1.036,0.683,2.174,0.683,3.414v0.048
		C105.631,96.545,105.613,96.843,105.584,97.283 M101.285,93.091c-0.462-0.485-1.062-0.729-1.801-0.729
		c-0.723,0-1.322,0.24-1.799,0.719c-0.481,0.479-0.79,1.133-0.931,1.967h5.392C102.035,94.229,101.748,93.578,101.285,93.091"/>
	<polygon fill="#333333" points="113.987,98.413 111.444,102.345 107.701,102.345 112.128,95.941 107.865,89.726 111.704,89.726 
		114.059,93.397 116.438,89.726 120.181,89.726 115.919,95.871 120.368,102.345 116.529,102.345 	"/>
</g>
<path fill="#FFA700" d="M355.564,28.973l-2.298,1.884l0.688,2.849c0.093,0.414-0.229,0.781-0.597,0.781
	c-0.092,0-0.229-0.046-0.321-0.092l-2.527-1.562l-2.482,1.562c-0.092,0.092-0.229,0.092-0.32,0.092
	c-0.368,0-0.689-0.368-0.598-0.781l0.689-2.849l-2.299-1.884c-0.413-0.368-0.184-1.057,0.368-1.103l2.94-0.23l1.149-2.757
	c0.092-0.276,0.321-0.368,0.597-0.368c0.276,0,0.46,0.138,0.598,0.368l1.148,2.757l2.941,0.23
	C355.748,27.87,356.023,28.605,355.564,28.973z M364.064,28.743c0.828,0.735,0.828,2.022,0,2.757l-0.551,0.459
	c-0.598,0.505-0.781,1.378-0.506,2.114l0.275,0.689c0.414,1.011-0.137,2.206-1.194,2.481l-0.688,0.184
	c-0.781,0.229-1.287,0.873-1.333,1.654l-0.046,0.735c-0.047,1.011-0.873,1.746-1.838,1.746c-0.092,0-0.23,0-0.322-0.046
	l-0.689-0.138c-0.092,0-0.229-0.046-0.321-0.046c-0.644,0-1.286,0.368-1.608,0.965l-0.367,0.644
	c-0.322,0.597-0.965,0.965-1.608,0.965c-0.368,0-0.735-0.092-1.058-0.368l-0.597-0.414c-0.321-0.23-0.689-0.368-1.058-0.368
	c-0.367,0-0.734,0.092-1.057,0.322l-0.598,0.414c-0.32,0.229-0.688,0.322-1.057,0.322c-0.643,0-1.286-0.322-1.607-0.965
	l-0.322-0.643c-0.322-0.598-0.965-0.965-1.607-0.965c-0.093,0-0.23,0-0.322,0.046l-0.781,0.184c-0.092,0-0.23,0.046-0.322,0.046
	c-0.965,0-1.791-0.735-1.838-1.746l-0.045-0.735c-0.047-0.781-0.553-1.47-1.333-1.7l-0.689-0.184
	c-1.058-0.322-1.608-1.471-1.194-2.481l0.275-0.643c0.322-0.735,0.138-1.562-0.459-2.114l-0.553-0.46
	c-0.826-0.735-0.826-2.021,0-2.757l0.553-0.459c0.597-0.505,0.781-1.378,0.505-2.114l-0.276-0.689
	c-0.413-1.011,0.139-2.206,1.195-2.481l0.689-0.184c0.781-0.23,1.287-0.873,1.332-1.654l0.047-0.735
	c0.045-1.011,0.873-1.746,1.838-1.746c0.092,0,0.229,0,0.321,0.046l0.735,0.138c0.092,0,0.229,0.046,0.322,0.046
	c0.643,0,1.285-0.368,1.607-0.965l0.367-0.644c0.322-0.597,0.965-0.965,1.609-0.965c0.367,0,0.734,0.092,1.057,0.368l0.598,0.414
	c0.321,0.229,0.689,0.367,1.057,0.367s0.734-0.092,1.057-0.321l0.598-0.414c0.321-0.23,0.689-0.322,1.057-0.322
	c0.643,0,1.287,0.322,1.608,0.965l0.321,0.644c0.322,0.597,0.965,0.965,1.608,0.965c0.092,0,0.229,0,0.321-0.046l0.736-0.138
	c0.092,0,0.229-0.046,0.32-0.046c0.966,0,1.793,0.735,1.839,1.746l0.046,0.735c0.046,0.781,0.551,1.471,1.332,1.7l0.689,0.184
	c1.057,0.322,1.608,1.47,1.195,2.481l-0.275,0.643c-0.322,0.735-0.139,1.562,0.459,2.114L364.064,28.743z M358.965,30.075
	c0-4.641-3.769-8.409-8.41-8.409c-4.641,0-8.408,3.768-8.408,8.409s3.768,8.409,8.408,8.409
	C355.196,38.484,358.965,34.716,358.965,30.075z M338.286,39.863v-0.092h-0.092c-0.873-0.229-1.608-0.735-2.206-1.378l-7.811,7.812
	c-0.276,0.276-0.093,0.735,0.275,0.781l4.411,0.414c0.138,0,0.275,0.138,0.275,0.276l0.505,4.503
	c0.047,0.368,0.506,0.552,0.781,0.276l8.227-8.225C340.309,44.09,338.424,42.252,338.286,39.863z M372.611,13.165l-4.41-0.414
	c-0.139,0-0.276-0.138-0.276-0.275l-0.505-4.503c-0.047-0.368-0.506-0.551-0.781-0.275l-8.134,8.225
	c2.343,0.138,4.228,1.976,4.319,4.365v0.092h0.092c0.873,0.23,1.608,0.735,2.206,1.379l7.812-7.812
	C373.163,13.671,373.025,13.211,372.611,13.165z"/>
<path fill="#FFA700" d="M301.459,39.005c0.424,0,0.891-0.085,1.271-0.212l-4.369,10.987c-0.127,0.339-0.594,0.382-0.764,0.042
	l-2.078-3.648c-0.085-0.127-0.212-0.17-0.34-0.127l-3.902,1.23c-0.339,0.127-0.679-0.212-0.509-0.551l4.157-10.393
	c0.551,0.254,1.188,0.424,1.824,0.424c0.254,0,0.509-0.042,0.764-0.084h0.084l0.043,0.084
	C298.361,38.114,299.846,39.005,301.459,39.005z M311.385,36.756c-0.255,0-0.51-0.042-0.764-0.084h-0.085l-0.042,0.084
	c-0.764,1.4-2.248,2.249-3.818,2.249c-0.424,0-0.848-0.085-1.272-0.212l4.411,11.029c0.128,0.339,0.594,0.382,0.764,0.042
	l2.078-3.648c0.086-0.127,0.213-0.17,0.34-0.127l3.902,1.23c0.34,0.127,0.68-0.212,0.51-0.551l-4.157-10.478
	C312.656,36.629,312.021,36.756,311.385,36.756z M291.193,24.54c-0.807-0.721-0.807-1.951,0-2.63l0.508-0.466
	c0.553-0.509,0.764-1.315,0.467-1.994l-0.254-0.637c-0.424-0.976,0.127-2.078,1.145-2.375l0.68-0.169
	c0.721-0.212,1.23-0.849,1.272-1.612l0.042-0.679c0.043-1.061,1.018-1.824,2.078-1.655l0.68,0.127
	c0.721,0.127,1.484-0.212,1.866-0.891l0.339-0.594c0.51-0.934,1.697-1.188,2.588-0.594l0.552,0.424c0.594,0.424,1.442,0.424,2.036,0
	l0.551-0.382c0.849-0.594,2.079-0.339,2.545,0.594l0.34,0.594c0.34,0.679,1.104,1.018,1.824,0.891l0.679-0.127
	c1.061-0.169,1.993,0.594,2.036,1.654l0.043,0.679c0.042,0.764,0.551,1.4,1.271,1.612l0.68,0.169c1.018,0.297,1.527,1.4,1.145,2.375
	l-0.297,0.636c-0.297,0.679-0.127,1.485,0.467,1.994l0.51,0.467c0.805,0.721,0.805,1.951,0,2.63l-0.51,0.467
	c-0.551,0.509-0.764,1.315-0.467,1.994l0.255,0.636c0.425,0.976-0.128,2.079-1.146,2.375l-0.679,0.17
	c-0.722,0.212-1.229,0.848-1.272,1.612l-0.043,0.679c-0.042,1.061-1.018,1.824-2.078,1.654l-0.679-0.127
	c-0.722-0.127-1.484,0.212-1.866,0.891l-0.34,0.594c-0.509,0.933-1.696,1.188-2.588,0.594l-0.551-0.424
	c-0.594-0.424-1.442-0.424-2.036,0l-0.552,0.382c-0.848,0.594-2.078,0.339-2.545-0.594l-0.34-0.594
	c-0.339-0.679-1.103-1.018-1.823-0.891l-0.679,0.127c-1.061,0.17-1.994-0.594-2.036-1.654l-0.042-0.679
	c-0.043-0.764-0.553-1.4-1.273-1.612l-0.679-0.17c-1.019-0.297-1.526-1.4-1.146-2.375L292.126,27
	c0.297-0.679,0.128-1.484-0.467-1.994L291.193,24.54z M295.477,23.267c0,4.751,3.861,8.611,8.611,8.611
	c4.752,0,8.611-3.86,8.611-8.611s-3.859-8.611-8.611-8.611C299.338,14.656,295.477,18.474,295.477,23.267z M299.635,27.933h1.399
	c0.169,0,0.382-0.042,0.509-0.169c0.043-0.042,0.213-0.212,0.213-0.721v-2.333c0,0,0,2.842,1.611,3.054
	c0.551,0.042,1.272,0.085,1.994,0.042c0.636,0.042,1.314,0.042,1.865-0.042c1.867-0.382,1.4-1.697,1.4-1.697
	c1.018-0.764,0.424-1.697,0.424-1.697c0.892-0.933,0-1.697,0-1.697s0.467-0.764-0.127-1.315c-0.764-0.721-2.885-0.254-2.885-0.254
	l0,0c-0.127,0.042-0.297,0.042-0.467,0.084c0,0-0.721,0.339,0-1.866c0.722-2.206-0.466-2.545-0.975-2.545
	c-0.51,0-0.34,1.103-0.34,1.103s-1.103,3.012-2.121,3.775c-0.297,0.297-0.424,0.636-0.509,0.848
	c-0.169-0.127-0.382-0.212-0.594-0.212h-1.399c-0.51,0-0.934,0.424-0.934,0.933v3.733C298.701,27.509,299.125,27.933,299.635,27.933
	z"/>
<path fill="#FFA700" d="M279.545,20.613c-0.572-0.528-0.792-1.364-0.484-2.067l0.264-0.66c0.44-1.012-0.131-2.155-1.188-2.463
	l-0.703-0.176c-0.748-0.22-1.275-0.88-1.32-1.672l-0.044-0.704c0-1.1-1.012-1.892-2.067-1.716l-0.703,0.132
	c-0.793,0.132-1.541-0.22-1.893-0.924l-0.352-0.616c-0.527-0.968-1.76-1.231-2.64-0.616l-0.571,0.396
	c-0.616,0.44-1.496,0.44-2.111,0l-0.572-0.44c-0.88-0.66-2.156-0.352-2.684,0.616l-0.352,0.616
	c-0.396,0.704-1.145,1.056-1.936,0.924l-0.704-0.132c-1.101-0.176-2.067,0.616-2.155,1.716l-0.045,0.704
	c-0.043,0.792-0.571,1.452-1.319,1.672l-0.704,0.176c-1.056,0.308-1.627,1.452-1.188,2.463l0.264,0.66
	c0.309,0.704,0.088,1.54-0.483,2.067l-0.528,0.484c-0.836,0.704-0.836,2.023,0,2.728l0.528,0.484
	c0.571,0.528,0.792,1.364,0.483,2.067l-0.308,0.66c-0.44,1.012,0.132,2.156,1.188,2.464l0.703,0.176
	c0.748,0.22,1.275,0.88,1.32,1.672l0.043,0.704c0.045,1.1,1.057,1.892,2.111,1.716l0.705-0.132c0.791-0.132,1.539,0.22,1.891,0.924
	l0.353,0.616c0.528,0.968,1.759,1.231,2.64,0.616l0.571-0.396c0.616-0.44,1.496-0.44,2.112,0l0.571,0.44
	c0.88,0.66,2.155,0.352,2.684-0.616l0.352-0.616c0.396-0.704,1.144-1.056,1.936-0.924l0.704,0.132
	c1.1,0.176,2.067-0.616,2.155-1.716l0.044-0.704c0.045-0.792,0.572-1.452,1.32-1.672l0.703-0.176
	c1.057-0.308,1.628-1.452,1.188-2.464l-0.264-0.66c-0.308-0.704-0.088-1.54,0.484-2.067l0.527-0.484
	c0.836-0.704,0.836-2.024,0-2.728L279.545,20.613z M266.699,30.73c-4.574,0-8.314-3.695-8.314-8.314
	c0-4.575,3.695-8.314,8.314-8.314c4.575,0,8.314,3.695,8.314,8.314C275.014,27.035,271.274,30.73,266.699,30.73z M269.911,18.193
	l1.979,1.979l-4.531,4.531l-1.979,1.979l-1.979-1.979l-1.892-1.892l1.979-1.98l1.892,1.892L269.911,18.193z M262.345,50.922V38.517
	c0.528,0.176,1.056,0.308,1.628,0.308c0.967,0,1.848-0.308,2.639-0.835l0.045-0.044l0.043,0.044c0.792,0.572,1.716,0.879,2.64,0.879
	c0.572,0,1.144-0.132,1.672-0.352v12.449c0,0.396-0.44,0.572-0.748,0.352l-3.476-2.815c-0.088-0.088-0.264-0.088-0.396,0
	l-3.388,2.771C262.785,51.494,262.345,51.318,262.345,50.922z"/>
<g>
	<path fill="#6FA500" d="M66.59,164.223l3.41-0.643l-0.425-2.179l-3.399,0.675c-0.32-1.139-0.773-2.236-1.351-3.268l2.876-1.917
		l-1.209-1.808l-2.875,1.961c-0.732-0.939-1.578-1.784-2.517-2.517l1.928-2.93l-1.809-1.209l-1.928,2.876
		c-1.031-0.586-2.128-1.047-3.268-1.373l0.675-3.388l-2.179-0.425l-0.675,3.388c-1.549-0.201-3.121-0.146-4.652,0.164l0.458,2.146
		c6.752-1.334,13.31,3.053,14.652,9.804c1.327,6.759-3.077,13.315-9.836,14.643c-5.965,1.171-11.906-2.129-14.064-7.812
		l-2.037,0.795c0.944,2.503,2.557,4.7,4.662,6.351l-1.917,2.854l1.808,1.209l1.917-2.854c1.029,0.587,2.126,1.044,3.268,1.362
		l-0.632,3.344l2.179,0.425l0.675-3.377c0.582,0.073,1.167,0.113,1.754,0.12c0.605-0.006,1.209-0.05,1.808-0.131l0.665,3.399
		l2.179-0.425l-0.665-3.399c1.142-0.313,2.239-0.767,3.268-1.35l1.917,2.875l1.809-1.198l-1.994-2.887
		c0.937-0.735,1.781-1.58,2.517-2.517l2.875,1.928l1.22-1.808l-2.887-1.928c0.587-1.029,1.044-2.127,1.361-3.268l3.41,0.675
		l0.425-2.179l-3.399-0.675C66.74,166.582,66.734,165.396,66.59,164.223z"/>
	<path fill="#6FA500" d="M45.925,171.359c0.006,2.599,2.118,4.701,4.717,4.695c2.599-0.006,4.701-2.118,4.695-4.717
		c-0.006-2.595-2.111-4.695-4.706-4.695C48.03,166.647,45.925,168.758,45.925,171.359z M53.159,171.359
		c-0.006,1.396-1.143,2.522-2.538,2.516c-1.396-0.006-2.522-1.143-2.517-2.538c0.006-1.392,1.136-2.517,2.527-2.517
		c1.396,0,2.527,1.131,2.527,2.527C53.159,171.351,53.159,171.355,53.159,171.359z"/>
	<path fill="#6FA500" d="M61.383,162.491c0-2.371-1.921-4.292-4.292-4.292s-4.292,1.921-4.292,4.292s1.922,4.292,4.292,4.292
		S61.383,164.862,61.383,162.491L61.383,162.491z M57.091,164.604c-1.167,0-2.114-0.946-2.114-2.113
		c0-1.167,0.946-2.113,2.114-2.113c1.167,0,2.113,0.946,2.113,2.113c0,1.161-0.941,2.103-2.103,2.103c-0.003,0-0.007,0-0.011,0
		V164.604z"/>
	<path fill="#6FA500" d="M39.236,162.959l3.878,3.17l1.383-1.688l-3.867-3.159c1.044-1.444,1.881-3.028,2.484-4.706l4.771,1.449
		l0.676-2.07l-4.771-1.449c0.422-1.739,0.599-3.528,0.523-5.316l4.968-0.479l-0.218-2.179l-4.967,0.491
		c-0.27-1.767-0.787-3.487-1.536-5.109l4.357-2.353l-1.024-1.917l-4.357,2.342c-0.936-1.524-2.08-2.91-3.398-4.118l3.147-3.878
		l-1.677-1.384l-3.17,3.856c-1.446-1.04-3.03-1.873-4.706-2.473l1.449-4.761l-2.048-0.686l-1.449,4.75
		c-1.74-0.417-3.529-0.589-5.316-0.512l-0.49-4.957l-2.179,0.218l0.49,4.957c-1.771,0.273-3.494,0.794-5.12,1.547l-2.342-4.357
		l-1.928,1.024l2.353,4.357c-1.529,0.934-2.919,2.078-4.129,3.399l-3.856-3.17l-1.384,1.688l3.856,3.159
		c-1.06,1.442-1.911,3.026-2.527,4.706l-4.761-1.438l-0.631,2.059l4.76,1.449c-0.428,1.738-0.604,3.528-0.523,5.316L1,151.227
		l0.218,2.179l4.946-0.49c0.273,1.771,0.793,3.495,1.547,5.12l-4.357,2.342l1.024,1.917l4.357-2.331
		c0.936,1.524,2.08,2.91,3.399,4.118l-3.17,3.856l1.677,1.383l3.159-3.834c1.442,1.062,3.026,1.917,4.706,2.538l-1.438,4.739
		l2.081,0.621l1.438-4.75c1.469,0.362,2.976,0.545,4.488,0.545c0.272,0,0.556,0,0.828,0l0.49,4.956l2.179-0.207l-0.49-4.957
		c1.771-0.277,3.495-0.801,5.12-1.558l2.342,4.357l1.928-1.089l-2.353-4.357C36.642,165.401,38.028,164.268,39.236,162.959z
		 M14.301,163.145c-7.274-5.978-8.325-16.721-2.347-23.996c2.879-3.504,7.037-5.716,11.552-6.147
		c0.566-0.054,1.089-0.087,1.699-0.087c9.416,0.045,17.012,7.714,16.967,17.13s-7.714,17.012-17.13,16.967
		c-3.915-0.019-7.704-1.384-10.73-3.867H14.301z"/>
	<path fill="#6FA500" d="M26.284,145.127c-0.373-3.712-3.684-6.418-7.396-6.045c-3.711,0.373-6.417,3.684-6.044,7.396
		c0.346,3.442,3.237,6.067,6.697,6.079c0.218,0,0.447,0,0.675,0c3.724-0.372,6.441-3.692,6.069-7.416
		C26.285,145.136,26.285,145.131,26.284,145.127z M16.643,149.332c-0.944-0.768-1.541-1.882-1.656-3.094
		c-0.255-2.508,1.571-4.748,4.079-5.003c0.027-0.002,0.055-0.005,0.083-0.007c0.148-0.011,0.298-0.011,0.446,0
		c2.533-0.004,4.589,2.046,4.593,4.579c0.003,2.533-2.047,4.589-4.58,4.593c-1.066,0.001-2.099-0.368-2.922-1.046L16.643,149.332z"
		/>
	<path fill="#6FA500" d="M29.628,153.253c1,0.824,2.255,1.274,3.551,1.274h0.566c3.09-0.302,5.35-3.052,5.047-6.142
		c-0.302-3.09-3.052-5.35-6.142-5.047c-3.09,0.302-5.35,3.052-5.047,6.142c0.145,1.483,0.873,2.848,2.024,3.794V153.253z
		 M32.896,145.486h0.349c0.795-0.001,1.566,0.277,2.179,0.784c0.667,0.588,1.081,1.412,1.155,2.298
		c0.189,1.892-1.191,3.579-3.083,3.769c-0.004,0-0.008,0-0.011,0.001c-1.892,0.187-3.577-1.196-3.764-3.088s1.196-3.577,3.088-3.764
		H32.896z"/>
	<path fill="#6FA500" d="M28.746,161.107c1.769-2.16,1.452-5.344-0.708-7.113c-2.16-1.769-5.344-1.452-7.113,0.708
		c-1.769,2.16-1.452,5.344,0.708,7.113c0.903,0.74,2.035,1.144,3.202,1.144h0.491C26.668,162.827,27.901,162.159,28.746,161.107z
		 M27.058,159.735c-1.01,1.226-2.823,1.4-4.049,0.39c-1.225-1.011-1.399-2.823-0.389-4.048c0.492-0.597,1.205-0.971,1.976-1.036
		h0.283c1.479-0.001,2.719,1.12,2.865,2.593l0,0C27.806,158.397,27.559,159.154,27.058,159.735L27.058,159.735z"/>
	<rect x="26.208" y="135.769" fill="#6FA500" width="2.179" height="2.179"/>
	<rect x="14.225" y="155.377" fill="#6FA500" width="2.179" height="2.179"/>
	<rect x="33.833" y="158.646" fill="#6FA500" width="2.179" height="2.179"/>
	<rect x="32.744" y="139.037" fill="#6FA500" width="2.179" height="2.179"/>
	<rect x="57.799" y="169.539" fill="#6FA500" width="2.179" height="2.179"/>
</g>
<g>
	<path fill="#6FA500" d="M122.271,121.086l-3.055,3.055c-1.166-0.558-2.556-0.321-3.472,0.59l-17.309,17.309L97,140.605
		l-5.651,5.682l2.881,2.881l-2.881,2.871l5.763,5.763l2.871-2.881l2.881,2.881l5.763-5.763l-1.436-1.436l1.904-1.914
		c1.017,0.568,2.164,0.866,3.329,0.865c0.836,0.001,1.665-0.154,2.444-0.458c2.715,2.038,4.308,5.239,4.296,8.634
		c0.008,5.871-4.746,10.635-10.616,10.643c-0.086,0-0.172-0.001-0.257-0.003c-3.576-0.04-6.9-1.847-8.879-4.826h3.645v-2.037h-4.765
		l-0.081-0.173h-8.98v0.173h-2.464v2.037h3.054c1.498,4.808,4.83,8.833,9.276,11.2h-1.375c-3.247,0.011-5.871,2.649-5.865,5.896
		v1.232h-4.073v2.036h39.709v-2.036h-1.018v-1.232c0.028-3.22-2.553-5.856-5.773-5.896h-3.33
		c9.439-4.897,13.121-16.519,8.224-25.958c-1.509-2.91-3.737-5.387-6.472-7.194c-0.122-0.773-0.38-1.518-0.764-2.199l6.109-6.109
		c0.911-0.916,1.148-2.306,0.591-3.472l3.054-3.054L122.271,121.086z M97.082,154.92l-2.881-2.881l1.436-1.436l2.841,2.912
		L97.082,154.92z M123.625,128.234l-2.881-2.881l1.924-1.945l2.881,2.882L123.625,128.234z M102.834,154.92l-1.436-1.405
		l-1.436-1.436l-2.881-2.881l-1.446-1.446l-1.436-1.466l2.159-2.159l1.436,1.436l1.446,1.446l2.881,2.881l1.446,1.436l1.436,1.436
		L102.834,154.92z M115.001,146.775c-0.771,0.516-1.679,0.789-2.606,0.784c-0.213,0.016-0.428,0.016-0.642,0
		c-0.398-0.057-0.788-0.163-1.161-0.315c-0.166-0.06-0.326-0.135-0.478-0.224l0,0l-0.102-0.071c-0.417-0.228-0.792-0.523-1.11-0.875
		c-0.845-0.907-1.299-2.111-1.263-3.35c0.005-2.652,2.154-4.8,4.806-4.806c1.204,0.024,2.354,0.505,3.217,1.344
		c0.338,0.297,0.633,0.64,0.876,1.019c0.116,0.192,0.218,0.394,0.306,0.601c0.229,0.573,0.346,1.185,0.346,1.802l0,0
		c0.013,1.637-0.812,3.166-2.189,4.052V146.775z M120.704,176.822c2.095,0.039,3.765,1.764,3.736,3.859v1.232H93.895v-1.272
		c-0.011-2.12,1.698-3.848,3.818-3.859c0.003,0,0.007,0,0.01,0h7.667c0.96,0.143,1.93,0.214,2.902,0.213
		c0.964,0.001,1.927-0.07,2.881-0.213L120.704,176.822z M119.084,144.067c7.497,5.932,8.765,16.817,2.833,24.314
		c-2.708,3.421-6.606,5.694-10.918,6.364h-5.467c-6.231-0.951-11.433-5.256-13.532-11.2h5.03c2.216,4.175,6.535,6.807,11.261,6.862
		c6.977,0.135,12.743-5.411,12.877-12.389c0.002-0.096,0.002-0.191,0.002-0.287c0.006-3.739-1.615-7.295-4.439-9.744
		C117.949,146.993,118.78,145.607,119.084,144.067z M117.048,137.774c-1.511-1.453-3.608-2.125-5.682-1.823
		c-2.985,0.456-5.323,2.806-5.763,5.793c-0.292,2.07,0.389,4.159,1.843,5.661l-1.731,1.731l-0.723,0.723l-5.752-5.753l0.723-0.723
		l17.116-17.116c0.431-0.436,1.134-0.44,1.57-0.009c0.003,0.003,0.005,0.006,0.008,0.009l4.175,4.174
		c0.436,0.431,0.439,1.134,0.008,1.57c-0.002,0.002-0.005,0.006-0.008,0.008L117.048,137.774z"/>
	<polygon fill="#6FA500" points="81.676,168.636 79.64,168.636 79.64,175.763 86.768,175.763 86.768,173.727 81.676,173.727 	"/>
	<polygon fill="#6FA500" points="79.64,150.308 81.676,150.308 81.676,144.199 86.768,144.199 86.768,142.163 79.64,142.163 	"/>
	<polygon fill="#6FA500" points="133.604,173.727 128.513,173.727 128.513,175.763 135.64,175.763 135.64,168.636 133.604,168.636 	
		"/>
	<polygon fill="#6FA500" points="133.573,150.298 135.609,150.308 135.64,143.181 128.513,143.181 128.513,145.217 133.594,145.217 
			"/>
	<rect x="83.713" y="181.872" fill="#6FA500" width="2.036" height="2.036"/>
	<rect x="129.531" y="181.872" fill="#6FA500" width="2.036" height="2.036"/>
	<rect x="133.604" y="181.872" fill="#6FA500" width="2.036" height="2.036"/>
</g>
<g>
	<rect x="181.828" y="175.976" fill="#6FA500" width="3.328" height="2.219"/>
	<rect x="189.594" y="175.976" fill="#6FA500" width="3.328" height="2.219"/>
	<rect x="186.266" y="179.304" fill="#6FA500" width="2.219" height="3.328"/>
	<rect x="186.266" y="171.539" fill="#6FA500" width="2.219" height="3.328"/>
	
		<rect x="150.31" y="121.621" transform="matrix(-0.7071 0.7071 -0.7071 -0.7071 346.0585 102.1183)" fill="#6FA500" width="3.14" height="2.219"/>
	
		<rect x="155.857" y="116.073" transform="matrix(-0.7072 0.707 -0.707 -0.7072 351.6075 88.7458)" fill="#6FA500" width="3.14" height="2.219"/>
	
		<rect x="156.316" y="121.154" transform="matrix(-0.7071 0.7071 -0.7071 -0.7071 355.5204 98.1869)" fill="#6FA500" width="2.219" height="3.14"/>
	
		<rect x="150.767" y="115.607" transform="matrix(-0.7072 0.707 -0.707 -0.7072 342.1308 92.6705)" fill="#6FA500" width="2.219" height="3.14"/>
	<path fill="#6FA500" d="M169.458,140.72c0.427-0.497,0.735-1.085,0.898-1.719c0.355-1.109,0.632-1.72,1.586-1.997
		s2.219,0.377,3.273,1.476c1.054,1.098,1.686,2.418,1.442,3.229c-0.244,0.81-0.943,1.231-1.997,1.597
		c-0.634,0.16-1.223,0.463-1.72,0.888c-1.575,1.575-0.954,2.84,0.444,4.238l6.323,6.312l6.09-6.091
		c0.246-0.264,0.521-0.499,0.821-0.699l0.277,0.255c0.161,0.267,0.284,0.554,0.366,0.854c0.325,1.61,1.497,2.918,3.062,3.417
		c1.653,0.488,3.794-0.311,5.436-2.008c1.642-1.697,2.518-3.805,2.03-5.458c-0.507-1.56-1.811-2.728-3.417-3.062
		c-0.301-0.08-0.589-0.203-0.854-0.366l-0.255-0.267c0.195-0.307,0.43-0.587,0.699-0.832l5.07-5.07l-19.303-19.281l-19.326,19.325
		l4.815,4.804C166.629,141.674,167.894,142.284,169.458,140.72z M179.731,119.265l16.164,16.152l-3.506,3.506
		c-1.398,1.398-2.019,2.663-0.444,4.238c0.501,0.418,1.088,0.722,1.72,0.887c1.109,0.366,1.719,0.632,1.997,1.598
		s-0.377,2.219-1.475,3.262c-1.099,1.042-2.418,1.686-3.24,1.442c-0.821-0.244-1.231-0.943-1.586-1.997
		c-0.164-0.635-0.471-1.223-0.899-1.72c-1.575-1.564-2.829-0.954-4.238,0.455l-4.515,4.526l-4.748-4.748
		c-0.269-0.245-0.504-0.524-0.699-0.832l0.244-0.266c0.271-0.16,0.562-0.283,0.866-0.366c1.609-0.333,2.915-1.507,3.417-3.073
		c0.488-1.642-0.311-3.783-2.008-5.425c-1.697-1.642-3.805-2.519-5.458-2.03c-1.565,0.499-2.737,1.807-3.062,3.417
		c-0.087,0.298-0.21,0.585-0.366,0.854l-0.277,0.255c-0.3-0.201-0.575-0.435-0.821-0.699l-3.25-3.239L179.731,119.265z"/>
	<path fill="#6FA500" d="M210.971,150.017c-0.234-0.208-0.439-0.447-0.61-0.71l0.188-0.2c0.242-0.137,0.498-0.245,0.765-0.322
		c1.518-0.315,2.75-1.42,3.229-2.896c0.347-1.937-0.373-3.911-1.886-5.17c-1.25-1.511-3.214-2.239-5.147-1.908
		c-1.478,0.47-2.588,1.699-2.906,3.217c-0.071,0.267-0.176,0.524-0.311,0.765l-0.211,0.2c-0.255-0.18-0.493-0.385-0.71-0.61
		l-1.986-1.986l-1.564,1.564l1.985,2.085c1.343,1.332,2.541,1.919,4.049,0.411c0.406-0.467,0.698-1.021,0.854-1.62
		c0.322-0.965,0.565-1.564,1.42-1.808c1.139-0.059,2.238,0.427,2.962,1.309c0.875,0.711,1.363,1.792,1.32,2.918
		c-0.244,0.865-0.854,1.109-1.809,1.431c-0.597,0.154-1.151,0.442-1.62,0.843c-0.563,0.464-0.888,1.156-0.887,1.886
		c0.157,0.854,0.618,1.623,1.298,2.163l4.149,4.149l-4.349,4.349c-0.213,0.229-0.452,0.434-0.71,0.61l-0.2-0.188
		c-0.144-0.242-0.252-0.503-0.322-0.776c-0.321-1.517-1.43-2.745-2.907-3.217c-1.902-0.317-3.829,0.401-5.059,1.886
		c-1.62,1.564-2.374,3.583-1.919,5.136c0.475,1.479,1.708,2.589,3.229,2.907c0.268,0.075,0.525,0.183,0.766,0.321
		c0.1,0.089,0.155,0.155,0.2,0.2c-0.178,0.257-0.383,0.496-0.61,0.71l-3.018,3.006l-14.521-14.566l-1.564,1.564l16.086,16.086
		l4.526-4.526c0.7-0.547,1.164-1.341,1.298-2.219c0.012-0.729-0.311-1.424-0.876-1.886c-0.471-0.403-1.029-0.691-1.631-0.843
		c-0.954-0.333-1.553-0.577-1.808-1.431c-0.042-1.143,0.46-2.238,1.354-2.951c0.721-0.861,1.808-1.33,2.929-1.265
		c0.854,0.244,1.109,0.843,1.42,1.809c0.156,0.598,0.448,1.153,0.854,1.62c1.508,1.509,2.707,0.921,4.049-0.411l5.88-5.924
		L210.971,150.017z"/>
	<path fill="#6FA500" d="M179.398,159.768c-1.398-1.409-2.663-2.019-4.238-0.443c-0.428,0.495-0.732,1.084-0.888,1.719
		c-0.366,1.109-0.632,1.72-1.597,1.997c-0.965,0.277-2.219-0.388-3.262-1.476c-0.97-0.789-1.509-1.99-1.453-3.239
		c0.288-0.954,0.943-1.231,2.008-1.586c0.632-0.162,1.217-0.469,1.708-0.898c0.596-0.477,0.939-1.201,0.932-1.964
		c-0.182-0.879-0.669-1.665-1.375-2.219l-6.312-6.312l-6.09,6.09c-0.245,0.269-0.525,0.504-0.832,0.699l-0.266-0.322
		c-0.16-0.271-0.283-0.562-0.366-0.865c-0.338-1.607-1.51-2.911-3.073-3.417c-1.653-0.488-3.783,0.322-5.425,2.008
		c-1.642,1.686-2.519,3.805-2.042,5.458c0.506,1.563,1.81,2.735,3.417,3.073c0.303,0.08,0.594,0.199,0.865,0.354
		c0.09,0.088,0.175,0.181,0.255,0.277c-0.202,0.302-0.437,0.582-0.699,0.832l-5.025,5.081l19.248,19.292l19.325-19.326
		L179.398,159.768z M148.735,164.616l3.495-3.494c0.708-0.553,1.196-1.339,1.375-2.219c0.007-0.763-0.336-1.487-0.932-1.964
		c-0.491-0.429-1.076-0.737-1.708-0.898c-1.109-0.355-1.72-0.622-2.008-1.586c-0.288-0.965,0.388-2.219,1.476-3.262
		c0.789-0.97,1.99-1.509,3.239-1.453c0.965,0.289,1.231,0.943,1.598,2.008c0.157,0.631,0.461,1.217,0.888,1.708
		c1.575,1.575,2.829,0.965,4.238-0.444l4.526-4.526l4.749,4.749c0.264,0.246,0.498,0.521,0.699,0.821
		c-0.08,0.097-0.165,0.189-0.255,0.277c-0.273,0.156-0.563,0.278-0.865,0.366c-1.607,0.331-2.912,1.5-3.417,3.062
		c-0.477,1.653,0.322,3.794,2.019,5.425c1.698,1.631,3.805,2.519,5.447,2.042c1.565-0.508,2.739-1.816,3.073-3.428
		c0.083-0.303,0.206-0.594,0.366-0.865l0.266-0.244c0.311,0.191,0.591,0.427,0.832,0.699l3.24,3.239l-16.186,16.142L148.735,164.616
		z"/>
</g>
<g>
	<g>
		<rect x="398.584" y="31.149" fill="#FFA700" width="2.832" height="8.5"/>
		<rect x="394.334" y="31.149" fill="#FFA700" width="2.832" height="8.5"/>
		<rect x="402.834" y="31.149" fill="#FFA700" width="2.832" height="8.5"/>
		<path fill="#FFA700" d="M404.047,13.418l-2.43,1.458l2.963,4.938h-9.163l2.962-4.938l-2.43-1.458l-3.838,6.397H383v8.5h1.707
			l4.25,18.417h22.088l4.25-18.417H417v-8.5h-9.115L404.047,13.418z M408.791,43.899h-17.582l-3.596-15.583h24.771L408.791,43.899z
			 M414.166,25.482h-28.332v-2.833h28.332V25.482z"/>
	</g>
</g>
<path fill="#FFA700" d="M427.132,31.642c-0.286-3.689,0.954-7.188,3.466-9.859c2.449-2.64,5.947-4.166,9.572-4.166
	c3.977,0,7.697,1.813,10.178,4.866l5.852-5.82c0.445-0.445,1.145-0.445,1.559,0c0.445,0.445,0.445,1.145,0,1.559l-16.506,16.41
	c-0.223,0.223-0.477,0.318-0.795,0.318l0,0c-0.287,0-0.572-0.127-0.795-0.318l-5.406-5.47c-0.445-0.445-0.445-1.145,0-1.559
	c0.445-0.413,1.145-0.445,1.558,0l4.675,4.675l8.27-8.205c-2.068-2.64-5.217-4.198-8.588-4.198c-2.988,0-5.883,1.272-7.949,3.467
	c-2.068,2.226-3.086,5.12-2.895,8.205c0.381,5.343,4.675,9.668,10.018,10.05c5.629,0.414,10.686-3.625,11.545-9.159
	c0.095-0.541,0.127-1.113,0.127-1.686c0-0.604,0.508-1.113,1.113-1.113c0.604,0,1.112,0.509,1.112,1.113
	c0,0.668-0.063,1.336-0.159,2.003c-0.986,6.361-6.583,11.067-12.975,11.067c-0.318,0-0.604,0-0.923-0.032
	C432.761,43.281,427.576,38.065,427.132,31.642z"/>
<path fill="#6FA500" d="M280.01,72.422c-0.518-0.277-1.102-0.424-1.689-0.424h-0.002l-5.301,0.003
	c0.296-1.744,0.406-3.52,0.328-5.286l-0.006-0.143c-0.007-0.154-0.027-0.31-0.063-0.481c-0.354-1.643-1.777-2.886-3.54-3.094
	l-0.326-0.038c-0.713-0.083-1.428,0.142-1.964,0.619c-0.534,0.475-0.839,1.156-0.839,1.886l0.002,1.275
	c0.002,0.936-0.18,1.849-0.541,2.712c-0.002,0.005-0.004,0.009-0.006,0.014c-0.363,0.866-0.886,1.641-1.555,2.302l-0.969,0.96
	c-0.253-0.236-0.59-0.384-0.963-0.384h-5.226c-0.779,0-1.411,0.632-1.411,1.412v14.743c0,0.78,0.632,1.412,1.411,1.412h5.227
	c0.74,0,1.341-0.571,1.399-1.295c0.771,0.178,1.561,0.271,2.364,0.271h10.067c1.773,0,3.234-1.361,3.381-3.087
	c0.912-0.7,1.46-1.757,1.508-2.907c0.018-0.425-0.035-0.843-0.154-1.247c0.513-0.634,0.797-1.429,0.797-2.281
	c0-0.647-0.176-1.271-0.504-1.814c0.326-0.59,0.504-1.261,0.504-1.941C281.939,74.281,281.208,73.064,280.01,72.422z
	 M261.166,87.087h-2.403V75.167h2.403v0.5v10.989V87.087z M278.603,78.543l0.327,0.35c0.121,0.128,0.187,0.295,0.187,0.492
	c0,0.24-0.107,0.462-0.296,0.612l-0.203,0.161c-0.486,0.385-0.664,1.042-0.438,1.62l0.227,0.58c0.053,0.134,0.076,0.275,0.07,0.419
	c-0.014,0.313-0.165,0.603-0.416,0.792l-0.52,0.391c-0.354,0.267-0.562,0.685-0.562,1.127v0.427c0,0.304-0.256,0.551-0.57,0.551
	H266.34c-0.807,0-1.594-0.124-2.352-0.37v-9.438l2.506-2.482c0.938-0.928,1.672-2.016,2.179-3.233
	c0.003-0.005,0.005-0.01,0.007-0.016c0.502-1.207,0.755-2.481,0.752-3.79l-0.001-0.931c0.544,0.073,0.989,0.433,1.089,0.892
	l0.008,0.143c0.074,1.715-0.051,3.441-0.372,5.129l-0.226,1.181c-0.078,0.414,0.031,0.84,0.299,1.165
	c0.269,0.324,0.667,0.511,1.088,0.511l0,0l7.004-0.004l0,0c0.123,0,0.247,0.031,0.377,0.101c0.259,0.139,0.419,0.402,0.419,0.687
	c0,0.313-0.128,0.62-0.351,0.841l-0.127,0.126C278.096,77.113,278.079,77.986,278.603,78.543z"/>
<g>
	<g>
		<g>
			<path fill="#FFFFFF" d="M14.493-11.14h-0.171c-3.59,0-6.839-1.539-9.403-4.104C0.132-20.373,0.474-28.75,5.603-34.05
				L21.332-49.78c0.342-0.342,0.854-0.513,1.197-0.513c0.342,0,0.855,0.171,1.197,0.513l16.071,16.071
				c0.342,0.342,0.513,0.855,0.513,1.197c0,0.513-0.171,1.026-0.513,1.197L23.726-15.073C21.332-12.508,18.083-11.14,14.493-11.14z
				 M22.529-46.189L7.996-31.657C4.064-27.725,3.893-21.57,7.483-17.808c1.88,1.88,4.274,3.077,6.839,3.077s5.129-1.026,7.01-2.906
				l14.875-14.875L22.529-46.189z M22.529-48.583L22.529-48.583L22.529-48.583z"/>
		</g>
	</g>
	<g>
		<g>
			<path fill="#FFFFFF" d="M70.571-11.482c-3.59,0-6.839-1.368-9.232-3.761L45.268-31.315c-0.342-0.342-0.513-0.855-0.513-1.197
				c0-0.513,0.171-0.855,0.513-1.197L61.339-49.78c0.342-0.342,0.684-0.513,1.197-0.513s0.855,0.171,1.197,0.513L79.462-34.05l0,0
				c5.129,5.129,5.471,13.506,0.684,18.636c-2.394,2.564-5.813,4.103-9.403,4.103C70.742-11.482,70.571-11.482,70.571-11.482z
				 M48.687-32.683l14.875,14.875c1.881,1.88,4.274,2.906,7.01,2.906c2.564,0,5.129-1.026,6.839-3.077
				c3.59-3.762,3.419-10.087-0.513-13.849L62.365-46.36L48.687-32.683z"/>
		</g>
	</g>
	<g>
		<g>
			<path fill="#FFFFFF" d="M44.242-49.438c-0.171,0-0.171,0-0.342,0c-0.513,0-1.197-0.342-1.368-0.855
				c-0.171-0.342-3.933-7.01-0.513-12.652c1.88-2.907,4.958-4.445,5.812-4.787c1.368-0.513,2.394-0.684,3.249-0.684
				c0.684,0,1.197-0.171,1.881-0.342c1.539-0.684,2.906-2.052,4.103-4.274c0.342-0.513,0.855-1.026,1.539-0.854
				c0.684,0,1.197,0.513,1.539,1.025c0.171,0.342,3.59,8.891-1.88,16.413C53.474-49.78,45.952-49.438,44.242-49.438z M57.919-68.245
				c-1.026,1.197-2.223,2.052-3.59,2.565c-1.197,0.513-2.052,0.513-2.906,0.684c-0.684,0-1.368,0.171-2.223,0.513
				c-0.513,0.171-2.907,1.196-4.274,3.419c-1.709,2.907-0.513,6.668,0.171,8.207c2.052-0.171,7.181-1.026,10.429-5.642
				C58.09-61.918,58.09-65.68,57.919-68.245z"/>
		</g>
	</g>
	<g>
		<g>
			<path fill="#FFFFFF" d="M37.403-43.625c-0.513,0-1.025-0.171-1.368-0.684c-0.513-0.684-0.513-1.881,0.342-2.394
				c2.735-2.223,5.471-4.616,7.693-7.181c2.223-2.394,4.104-5.129,5.813-7.865c0.513-0.855,1.539-1.026,2.394-0.513
				c0.855,0.513,1.026,1.539,0.513,2.394c-1.71,2.907-3.933,5.813-6.155,8.378c-2.394,2.906-5.3,5.471-8.207,7.693
				C38.087-43.796,37.745-43.625,37.403-43.625z"/>
		</g>
	</g>
	<g>
		<g>
			<g>
				<g>
					<path fill="#FFFFFF" d="M20.99-35.589c-0.684-0.684-0.684-1.709,0-2.394l0,0c0.684-0.684,1.709-0.684,2.394,0l0,0
						c0.684,0.684,0.684,1.71,0,2.394l0,0C22.7-34.905,21.674-34.905,20.99-35.589z M16.203-30.802c-0.684-0.684-0.684-1.71,0-2.394
						l0,0c0.684-0.684,1.71-0.684,2.394,0l0,0c0.684,0.684,0.684,1.71,0,2.394l0,0C17.913-30.118,16.716-30.118,16.203-30.802z
						 M11.245-26.015c-0.684-0.684-0.684-1.709,0-2.394l0,0c0.684-0.684,1.709-0.684,2.394,0l0,0c0.684,0.684,0.684,1.71,0,2.394
						l0,0C12.954-25.331,11.929-25.331,11.245-26.015z"/>
				</g>
			</g>
		</g>
		<g>
			<g>
				<g>
					<path fill="#FFFFFF" d="M25.777-30.802c-0.684-0.684-0.684-1.71,0-2.394l0,0c0.684-0.684,1.71-0.684,2.394,0l0,0
						c0.684,0.684,0.684,1.71,0,2.394l0,0C27.487-30.118,26.461-30.118,25.777-30.802z M20.99-26.015
						c-0.684-0.684-0.684-1.709,0-2.394l0,0c0.684-0.684,1.709-0.684,2.394,0l0,0c0.684,0.684,0.684,1.71,0,2.394l0,0
						C22.7-25.331,21.674-25.331,20.99-26.015z M16.203-21.057c-0.684-0.684-0.684-1.71,0-2.394l0,0c0.684-0.684,1.71-0.684,2.394,0
						l0,0c0.684,0.684,0.684,1.709,0,2.394l0,0C17.913-20.373,16.716-20.373,16.203-21.057z"/>
				</g>
			</g>
		</g>
	</g>
</g>
<g transform="translate(0,-952.36218)">
	<path fill="#FFFFFF" d="M99.55,888.362c-1.027-0.001-1.861,0.831-1.862,1.857c0,0.09,0.006,0.179,0.019,0.268l1.196,8.252
		c0.146,1.018,1.09,1.725,2.108,1.579c1.018-0.146,1.725-1.09,1.579-2.108c0,0,0-0.001,0-0.001l-0.88-6.127h30.619l-5.911,40.748
		c-0.27,1.858-2.19,3.52-4.018,3.52h-10.76c-1.828,0-3.748-1.662-4.019-3.52l-0.498-3.354c-0.065-1.025-0.95-1.803-1.975-1.738
		c-1.025,0.065-1.803,0.95-1.738,1.975c0.006,0.099,0.021,0.198,0.042,0.294l0.482,3.354c0.553,3.801,3.874,6.708,7.705,6.708h10.76
		c3.831,0,7.151-2.908,7.705-6.708l6.227-42.873c0.146-1.017-0.559-1.96-1.575-2.106c-0.089-0.013-0.178-0.019-0.268-0.019H99.55
		L99.55,888.362z M99.019,901.214c-1.97,0-3.937,0.748-5.43,2.242c-2.987,2.987-2.987,7.889,0,10.876l2.208,2.208l1.876,1.876
		l4.616,4.616c2.987,2.987,7.889,2.987,10.876,0c2.987-2.987,2.987-7.889,0-10.876l-4.184-4.184l-0.034-0.05
		c-0.093-0.111-0.199-0.212-0.315-0.299l-4.167-4.167C102.972,901.962,100.989,901.214,99.019,901.214L99.019,901.214z
		 M99.019,904.917c1.007,0,2.018,0.391,2.806,1.179l3.039,3.039l-3.52,3.503c-0.732,0.722-0.741,1.9-0.02,2.632
		c0.721,0.732,1.899,0.741,2.632,0.02c0.004-0.004,0.008-0.008,0.012-0.012l3.52-3.52l3.039,3.039c1.576,1.576,1.576,4.02,0,5.596
		s-4.02,1.576-5.596,0l-4.616-4.599l-1.876-1.893l-2.208-2.208c-1.576-1.576-1.576-4.02,0-5.596
		C97.017,905.308,98.011,904.917,99.019,904.917z"/>
</g>
<g>
	<path fill="#FFFFFF" d="M183.776-5.352c-0.003-0.002-0.007-0.004-0.011-0.005l-36.469-17.748c-0.72-0.351-1.02-1.217-0.669-1.937
		l24.087-49.494c0.35-0.719,1.217-1.02,1.937-0.668l36.469,17.742c0.344,0.167,0.609,0.465,0.735,0.829
		c0.125,0.363,0.101,0.762-0.067,1.107L185.781-6.191c-0.019,0.057-0.042,0.115-0.07,0.17
		C185.362-5.302,184.494-5.002,183.776-5.352z M149.865-25.077l33.865,16.48l22.818-46.896l-33.863-16.475L149.865-25.077z"/>
</g>
<g>
	<path fill="#FFFFFF" d="M185.428-39.612l-12.201-5.938c-0.72-0.351-1.019-1.217-0.668-1.937l5.938-12.201
		c0.35-0.72,1.217-1.019,1.936-0.668l10.638,5.177c0.719,0.35,1.019,1.217,0.669,1.936c-0.351,0.719-1.218,1.02-1.937,0.668
		l-9.335-4.542l-4.67,9.595l9.596,4.67l0.466-0.956c0.35-0.72,1.217-1.02,1.936-0.669c0.72,0.35,1.019,1.217,0.669,1.936l-1.1,2.259
		C187.014-39.562,186.147-39.262,185.428-39.612z"/>
	<path fill="#FFFFFF" d="M175.983-20.206l-12.2-5.938c-0.72-0.351-1.019-1.217-0.669-1.937l5.938-12.201
		c0.35-0.719,1.216-1.019,1.936-0.668l12.201,5.938c0.72,0.35,1.019,1.217,0.668,1.937l-5.937,12.2
		C177.569-20.156,176.702-19.857,175.983-20.206z M166.353-28.115l9.596,4.67l4.67-9.597l-9.596-4.669L166.353-28.115z"/>
</g>
<path fill="#FFFFFF" d="M182.965-45.752L182.965-45.752c-0.346-0.168-0.61-0.466-0.735-0.829l-2.251-6.52
	c-0.261-0.756,0.141-1.581,0.896-1.841c0.756-0.262,1.581,0.14,1.842,0.896l1.778,5.15l12.831-4.43
	c0.757-0.262,1.581,0.14,1.841,0.897c0.262,0.755-0.139,1.58-0.896,1.841l-14.199,4.902C183.708-45.56,183.31-45.584,182.965-45.752
	z"/>
<g>
	<path fill="#6FA500" d="M278.154,177.699h-1.773v-32.823c0-2.446-1.99-4.436-4.436-4.436h-40.807c-2.446,0-4.436,1.99-4.436,4.436
		v32.823h-1.774c-0.491,0-0.887,0.397-0.887,0.887v0.887c0,2.446,1.99,4.436,4.436,4.436h46.128c2.447,0,4.436-1.989,4.436-4.436
		v-0.887C279.041,178.096,278.645,177.699,278.154,177.699z M228.477,144.876c0-1.467,1.194-2.661,2.661-2.661h40.807
		c1.467,0,2.66,1.194,2.66,2.661v32.823h-46.128V144.876z M274.605,182.134h-46.128c-1.467,0-2.661-1.193-2.661-2.661h1.774h47.904
		h1.773C277.268,180.94,276.074,182.134,274.605,182.134z"/>
	<path fill="#6FA500" d="M271.945,143.989h-40.807c-0.49,0-0.887,0.397-0.887,0.887v30.161c0,0.49,0.397,0.887,0.887,0.887h40.807
		c0.49,0,0.887-0.397,0.887-0.887v-30.161C272.832,144.386,272.436,143.989,271.945,143.989z M271.059,174.15h-39.033v-28.387
		h39.033V174.15z"/>
	<path fill="#6FA500" d="M258.268,161.234c0.211-0.211,0.303-0.514,0.242-0.805c-0.061-0.292-0.264-0.535-0.541-0.646l-6.271-2.51
		c-0.328-0.13-0.705-0.054-0.957,0.197c-0.25,0.251-0.329,0.627-0.197,0.957l2.51,6.272c0.111,0.277,0.354,0.479,0.646,0.54
		c0.059,0.012,0.119,0.019,0.178,0.019c0.234,0,0.461-0.092,0.627-0.26l1.256-1.254l3.137,3.136l1.254-1.254l-3.137-3.137
		L258.268,161.234z M254.201,162.792l-1.24-3.102l3.102,1.241L254.201,162.792z"/>
	<path fill="#6FA500" d="M251.896,155.521c1.213,0,2.273,0.819,2.576,1.992l1.717-0.444c-0.506-1.956-2.27-3.321-4.293-3.321
		c-2.446,0-4.436,1.99-4.436,4.435c0,1.578,0.85,3.049,2.215,3.84l0.889-1.535c-0.821-0.476-1.33-1.359-1.33-2.306
		C249.235,156.715,250.429,155.521,251.896,155.521z"/>
	<path fill="#6FA500" d="M250.9,166.104l0.219-1.76c-3.096-0.387-5.433-3.036-5.433-6.162c0-3.424,2.787-6.209,6.21-6.209
		c3.424,0,6.209,2.786,6.209,6.209h1.775c0-4.401-3.582-7.983-7.984-7.983c-4.403,0-7.984,3.582-7.984,7.983
		C243.913,162.202,246.916,165.607,250.9,166.104z"/>
	<rect x="248.348" y="167.94" fill="#6FA500" width="1.774" height="1.774"/>
	<rect x="251.896" y="167.94" fill="#6FA500" width="1.773" height="1.774"/>
	<rect x="255.445" y="167.94" fill="#6FA500" width="1.773" height="1.774"/>
</g>
<g>
	<path fill="#6FA500" d="M311.414,146.148c-3.418,0-6.197,2.78-6.197,6.197c0,3.417,2.779,6.197,6.197,6.197
		c3.416,0,6.195-2.78,6.195-6.197C317.609,148.928,314.83,146.148,311.414,146.148z M311.414,156.771
		c-2.441,0-4.428-1.986-4.428-4.426c0-2.441,1.986-4.426,4.428-4.426c2.439,0,4.426,1.985,4.426,4.426
		C315.84,154.785,313.854,156.771,311.414,156.771z"/>
	<path fill="#6FA500" d="M341.031,165.033h-3.541c-1.182,0-2.174,0.78-2.518,1.849h-2.664c0.033-0.245,0.053-0.492,0.053-0.746
		v-5.318l5.203-2.88l-4.854-8.408c-0.836-1.449-1.256-2.839-1.363-4.508c-0.695-10.938-9.836-19.506-20.807-19.506
		c-11.498,0-20.854,9.354-20.854,20.852c0,4.956,1.77,9.759,4.982,13.524c3.488,4.089,5.184,8.689,5.184,14.065v9.95h1.771v-9.95
		c0-5.734-1.887-10.854-5.609-15.214c-2.938-3.445-4.557-7.839-4.557-12.375c0-9.45,6.904-17.312,15.934-18.818v15.935
		c-3.367,1.534-5.717,4.924-5.717,8.859c0,5.369,4.367,9.737,9.736,9.737c1.977,0,3.814-0.595,5.352-1.61l13.232,7.639
		c-0.502,0.774-1.291,1.396-2.312,1.752l-3.154,1.102c-1.582,0.553-5.783,2.018-5.787,5.537l-0.01,7.399l1.771,0.003l0.01-7.4
		c0.002-1.564,1.42-2.758,4.6-3.867l3.156-1.103c1.592-0.556,2.803-1.585,3.48-2.882h3.273c0.387,0.988,1.344,1.692,2.469,1.692
		h3.541c1.463,0,2.654-1.192,2.654-2.656C343.688,166.224,342.496,165.033,341.031,165.033z M309.164,127.341
		c0.455-0.032,0.912-0.055,1.377-0.055c0.934,0,1.854,0.068,2.754,0.199v15.308c-0.609-0.12-1.238-0.186-1.883-0.186
		c-0.775,0-1.525,0.1-2.248,0.272V127.341L309.164,127.341z M303.445,152.345c0-4.393,3.574-7.967,7.969-7.967
		c4.393,0,7.967,3.574,7.967,7.967c0,4.393-3.574,7.967-7.967,7.967C307.02,160.312,303.445,156.738,303.445,152.345z
		 M318.238,159.278c1.795-1.768,2.912-4.221,2.912-6.933c0-4.078-2.521-7.573-6.086-9.021v-15.493
		c7.922,1.938,13.979,8.846,14.518,17.304c0.123,1.929,0.631,3.606,1.598,5.28l3.951,6.846l-4.539,2.513v6.361
		c0,0.088-0.016,0.173-0.021,0.26L318.238,159.278z M341.031,168.574h-3.541c-0.486,0-0.885-0.398-0.885-0.885
		c0-0.489,0.398-0.885,0.885-0.885h3.541c0.488,0,0.887,0.396,0.887,0.885C341.918,168.176,341.52,168.574,341.031,168.574z"/>
</g>
<g>
	<path fill="#6FA500" d="M421.803,171.499c0.082-2.029,0-6.274-3.16-7.487c-0.314-0.642-0.98-2.064-2.332-5.085
		c-1.178-2.561-3.736-4.205-6.555-4.21h-7.779v-10.497h-40.82v15.162h-6.998v24.492h32.656v-4.666h16.445
		c0.625,3.16,3.691,5.215,6.852,4.59c2.318-0.459,4.131-2.271,4.59-4.59h5.83l0.305-0.197c0.35-0.244,2.145-1.539,2.145-3.301
		c0-0.152,0-0.326,0-0.502C422.969,174.17,423.051,172.373,421.803,171.499z M384.482,176.875v4.666h-27.99v-19.828h8.164v5.832
		h11.662v-5.832h8.164V176.875z M366.988,161.713h6.998v3.499h-6.998V161.713z M399.645,176.875h-12.83v-17.494H363.49v-12.829
		h36.154V176.875z M412.275,179.207c-0.65,1.82-2.652,2.768-4.473,2.117c-0.988-0.352-1.764-1.129-2.117-2.117
		c-0.279-0.752-0.279-1.58,0-2.332c0.65-1.819,2.652-2.768,4.473-2.117c0.986,0.354,1.764,1.13,2.117,2.117
		C412.555,177.627,412.555,178.455,412.275,179.207z M420.637,175.138c0,0.198,0,0.396,0,0.571c0,0.175-0.42,0.793-0.863,1.166
		h-5.084c-0.625-3.16-3.693-5.214-6.852-4.589c-2.318,0.458-4.131,2.271-4.59,4.589h-1.271v-19.827h7.779
		c1.904,0.006,3.633,1.116,4.432,2.846c2.262,4.934,2.531,5.458,2.625,5.633l0.244,0.455l0.514,0.128
		c1.9,0.466,2.018,3.266,1.912,5.656v1.33l0.887,0.245C420.637,173.423,420.637,174.239,420.637,175.138z"/>
	<rect x="357.646" y="131.39" fill="#6FA500" width="2.332" height="2.333"/>
	<rect x="352.98" y="131.39" fill="#6FA500" width="2.334" height="2.333"/>
	<path fill="#6FA500" d="M369.602,132.568c0.234-2.312,2.07-4.134,4.385-4.35c1.807,0.006,3.424,1.129,4.059,2.822l0.42,1.166
		l1.107-0.443c0.266-0.096,0.547-0.14,0.828-0.128c0.912,0.037,1.719,0.602,2.064,1.446l0.314,0.688h12.199v-2.333h-10.787
		c-0.82-1.331-2.252-2.163-3.814-2.216c-0.197,0-0.42,0-0.617,0c-1.188-2.104-3.416-3.406-5.832-3.406
		c-3.152,0.2-5.807,2.433-6.543,5.505h-5.062v2.333h7.279V132.568z"/>
	<path fill="#6FA500" d="M393.812,139.554h12.432v-1.166c0.045-1.99,1.691-3.568,3.682-3.525c1.316,0.028,2.512,0.771,3.119,1.938
		l0.385,0.665l0.758-0.093c1.275-0.056,2.482,0.57,3.172,1.645l0.338,0.525h5.271v-2.333h-4.047
		c-1.045-1.293-2.594-2.079-4.256-2.158c-1.104-1.537-2.867-2.463-4.758-2.496c-2.771,0.072-5.154,1.979-5.832,4.665h-10.264
		V139.554z"/>
	<path fill="#6FA500" d="M411.633,160.547c-0.326-0.71-1.037-1.166-1.818-1.167h-5.506v8.164h7.383
		c1.135,0.005,2.057-0.91,2.062-2.043c0-0.306-0.066-0.607-0.197-0.884L411.633,160.547z M406.631,165.212v-3.499h2.973l1.645,3.499
		H406.631z"/>
	<rect x="358.812" y="176.875" fill="#6FA500" width="2.332" height="2.332"/>
	<rect x="363.479" y="176.875" fill="#6FA500" width="2.332" height="2.332"/>
	<rect x="368.143" y="176.875" fill="#6FA500" width="2.332" height="2.332"/>
</g>
<g>
	<path fill="#6FA500" d="M496.268,150.749c-1.088-1.47-3.564-2.014-6.455-1.299c-0.477,0.104-0.945,0.246-1.4,0.423v-20.744h-39.271
		v27.511c-1.078,1.067-2.84,2.759-4.41,4.239l-1.834-1.833l-8.256,8.277l16.615,16.585l8.246-8.258l-2.457-2.457
		c0.289-0.426,0.748-0.705,1.26-0.765h18.406c2.387,0,11.662-9.063,11.742-9.184c0.947-1.067,6.564-8.277,7.945-11.5l0.242-0.523
		L496.268,150.749z M473.309,131.143v4.028h-9.062v-4.028H473.309z M451.154,131.143h11.076v6.042h13.092v-6.042h11.076v19.827
		c-1.383,1.039-2.512,2.378-3.303,3.917l-4.783,2.326c-0.883-0.618-1.943-0.933-3.021-0.896h-7.803
		c-0.541-0.277-1.047-0.615-1.512-1.007c-1.188-0.917-2.518-2.014-3.887-2.014h-6.455c-1.621,0.141-3.174,0.73-4.48,1.702V131.143z
		 M451.256,181.069l-13.766-13.746l5.406-5.417l0.363,0.353l1.439,1.43l9.588,9.597l1.439,1.44l0.936,0.926L451.256,181.069z
		 M486.943,161.936c-1.391,1.51-8.953,8.177-10.232,8.479h-18.406c-1.066,0.022-2.068,0.512-2.74,1.339l-9.445-9.445l3.102-3.021
		l1.471-1.44c0.211-0.181,0.422-0.383,0.664-0.574c1.182-1.077,2.658-1.778,4.24-2.014h6.455c0.674,0,1.812,0.896,2.637,1.541
		c0.203,0.171,0.414,0.322,0.605,0.473c0.58,0.55,1.32,0.903,2.113,1.007h7.875c0.885-0.065,1.744,0.312,2.297,1.007
		c0.316,0.439,0.486,0.968,0.482,1.51c0.014,1.385-1.098,2.519-2.482,2.532c-0.098,0.001-0.197-0.004-0.297-0.015h-11.076v2.014
		h11.076c2.486,0.156,4.629-1.734,4.785-4.221c0.006-0.104,0.01-0.207,0.008-0.311c-0.004-0.514-0.094-1.024-0.262-1.51
		c-0.051-0.178-0.123-0.351-0.211-0.514l3.152-1.45l1.842-0.916l0.162-0.282c0.439-0.894,1.002-1.721,1.672-2.457
		c1.025-1.137,2.381-1.926,3.877-2.255c1.303-0.405,2.709-0.337,3.967,0.191c-2.178,3.616-4.629,7.06-7.33,10.302V161.936z"/>
	<polygon fill="#6FA500" points="442.082,165.984 440.984,167.071 443.623,169.73 444.852,168.481 445.043,168.3 442.404,165.662 	
		"/>
	<rect x="453.178" y="149.268" fill="#6FA500" width="2.016" height="2.014"/>
	<rect x="457.207" y="149.268" fill="#6FA500" width="2.014" height="2.014"/>
	<rect x="461.234" y="149.268" fill="#6FA500" width="2.014" height="2.014"/>
</g>
<g>
	<g>
		<g>
			<rect x="353.539" y="77.534" fill="#DBDBDB" width="75.898" height="3.1"/>
		</g>
	</g>
	<g>
		<g>
			<rect x="316.333" y="77.534" fill="#DBDBDB" width="22.324" height="3.1"/>
		</g>
	</g>
	<g>
		<g>
			<polygon fill="#DBDBDB" points="436.736,92.581 434.542,90.387 445.848,79.083 434.542,67.775 436.736,65.581 450.233,79.083 			
				"/>
		</g>
	</g>
</g>
<g>
	<path fill="#DBDBDB" d="M302.193,81.609l-2.426-2.422l2.425-2.422c0.36-0.36,0.36-0.944,0-1.305c-0.36-0.36-0.945-0.36-1.306,0
		l-2.424,2.422l-2.424-2.422c-0.36-0.36-0.944-0.36-1.306,0c-0.36,0.36-0.36,0.944,0,1.305l2.425,2.422l-2.425,2.422
		c-0.36,0.36-0.36,0.945,0,1.305c0.181,0.18,0.417,0.271,0.653,0.271s0.473-0.091,0.652-0.271l2.424-2.423l2.425,2.423
		c0.18,0.18,0.416,0.271,0.652,0.271c0.235,0,0.473-0.091,0.653-0.271C302.554,82.554,302.554,81.97,302.193,81.609z"/>
</g>
</svg>
